#!OML:ASF F:\VICON\USERDATA\INSTALL\rory3\rory3.ASF
:FULLY-SPECIFIED
:DEGREES
27
root 0.5605677285984257 17.61839536196857 -13.927096495388838 6.9893792301814 -1.559429180199774 -0.9198899078101175
lfemur -12.724511629619682 6.00471650397874 -18.86590646673515
ltibia 19.10570846918798
lfoot -10.819801571891205 7.036510808482461
ltoes 5.989056613308046
rfemur -14.58101099273779 -2.7675135012410657 19.306005808704953
rtibia 23.01760826304597
rfoot -14.18880012973079 -4.062011191057362
rtoes 12.257596464850359
lowerback -3.041117209814037 -0.3124770157959549 -0.23066470759437524
upperback 3.44111382384385 -0.46711910172333443 1.2921983276073974
thorax 5.278130374003098 -0.26836574957572346 1.4325493563944316
lowerneck -12.741200097732115 0.9188325162553164 -1.782631570888627
upperneck 33.91519238313029 1.488745427842614 0.9851758866177066
head 13.544691800612188 0.544858670070988 0.9269254109661219
lclavicle -1.1859566385597464e-17 -8.162223791282117e-16
lhumerus -20.146192345412935 -4.3356781796541215 89.1327053042078
lradius 20.779409277152986
lwrist 1.364115640276525
lhand -24.03800642059798 -2.492606896041897
lfingers 7.125019999999999
lthumb 2.440663636871706 27.473193047328362
rclavicle -1.1859566385597464e-17 -8.162223791282117e-16
rhumerus -22.81948665559345 -13.46558512067756 -81.67381185790734
rradius 26.003409714876696
rwrist 31.591985981568385
rhand -17.86130314109917 -27.077295063481763
rfingers 7.125019999999999
rthumb 8.40417686699836 -56.88999542083834
28
root 0.563634596755826 17.61719537811053 -13.938196464340004 7.040789112174787 -1.5819490004264298 -0.9219148576900759
lfemur -12.882210806140984 6.017996327658155 -18.882806273090623
ltibia 19.224708499091875
lfoot -10.830801556786867 7.039830790744654
ltoes 6.066686408287734
rfemur -14.720610668235528 -2.730053826015867 19.29880586502343
rtibia 23.086608268846398
rfoot -14.178900144320957 -4.069561152094342
rtoes 12.187296550279132
lowerback -2.9169277127356272 -0.31579095421113024 -0.2155408643564895
upperback 3.4564437522528673 -0.4722260217943173 1.2985381296990008
thorax 5.223260549833354 -0.27032069225966027 1.4306494142236703
lowerneck -12.74230009242731 0.9254264526302829 -1.7994014447579951
upperneck 33.84779233636771 1.5042253217567707 0.9795769104828368
head 13.514991904244866 0.5492986101778565 0.9291113750469657
lclavicle -1.1859569499050144e-17 -8.162223900062756e-16
lhumerus -19.947493023215166 -5.2448472588124595 89.51880418967936
lradius 21.43260729939956
lwrist 2.2197144944169533
lhand -24.073506222304307 -2.475847005291085
lfingers 7.125019999999999
lthumb 2.4063837634608998 27.490292918704732
rclavicle -1.1859569499050144e-17 -8.162223900062756e-16
rhumerus -22.545187918388645 -12.59608626869338 -82.13401017284835
rradius 26.488308583491545
rwrist 30.90598762083697
rhand -17.8829030126629 -27.102094795850956
rfingers 7.125019999999999
rthumb 8.383346967655529 -56.915795142521986
29
root 0.567341438970741 17.613995421155757 -13.956296376465147 7.079148895152553 -1.633418596481819 -0.9589708652706916
lfemur -13.123310994640716 6.022796260616491 -18.865506481557908
ltibia 19.479808367014943
lfoot -10.849101505232712 7.10711050386206
ltoes 6.041446462400361
rfemur -14.908009278104434 -2.6735542911742023 19.327105561866567
rtibia 23.213508452502126
rfoot -14.155500190917321 -4.043701252392681
rtoes 12.231396406411587
lowerback -2.6768582594866883 -0.3037911845145709 -0.16857736902262327
upperback 3.5083633984059603 -0.45877921881083694 1.316347557076727
thorax 5.139851011799633 -0.2621699173500197 1.4245495229047234
lowerneck -12.802399778008533 0.9413064266553739 -1.7883315403476847
upperneck 33.77619233164258 1.5383552257346356 0.9412031359660709
head 13.496892068519207 0.5610515645411539 0.9167715728639904
lclavicle -1.1859580863247717e-17 -8.162223815911669e-16
lhumerus -19.74949376792626 -6.164865799952427 89.89010301148808
lradius 22.14900523233345
lwrist 3.0649836467914167
lhand -24.22160579076407 -2.7419055386397444
lfingers 7.125019999999999
lthumb 2.2633242671758116 27.225794446717053
rclavicle -1.1859580863247717e-17 -8.162223815911669e-16
rhumerus -22.238388824980518 -11.700187442299914 -82.56800864360544
rradius 27.00830729924241
rwrist 30.225989989924688
rhand -17.88360303149222 -27.150794196458953
rfingers 7.125019999999999
rthumb 8.38263695114634 -56.964394622623345
30
root 0.5718182414598949 17.60879549110425 -13.98469631529635 7.126008797466383 -1.7248678865521363 -1.016522315342627
lfemur -13.461810954764628 6.0224362587736024 -18.833706732930786
ltibia 19.84420762993758
lfoot -10.875201480719678 7.244059927200141
ltoes 5.9503766385410195
rfemur -15.19371016109335 -2.5883150460945608 19.374905100959616
rtibia 23.4195081050147
rfoot -14.084200315749595 -4.0021314394619685
rtoes 12.295896300615555
lowerback -2.319808485079811 -0.28125562041688845 -0.12429882598277892
upperback 3.619932808348062 -0.431684601394448 1.3531964046746716
thorax 5.052001356379234 -0.24801730896520216 1.440949191097605
lowerneck -12.814599715917335 0.9570523197711638 -1.774241637851449
upperneck 33.601992542298206 1.576095118437827 0.8825244690483793
head 13.42379212279728 0.5732144814373323 0.8947239276601467
lclavicle -1.1859571717402872e-17 -8.162223723550729e-16
lhumerus -19.535694511706865 -7.055664860219743 90.23160194587705
lradius 22.95000302255502
lwrist 3.903461852332309
lhand -24.209105816329032 -2.7094156797476128
lfingers 7.125019999999999
lthumb 2.2754041884087832 27.25819423632719
rclavicle -1.1859571717402872e-17 -8.162223723550729e-16
rhumerus -21.88379030134749 -10.77988895344778 -82.95570724339095
rradius 27.577105977936316
rwrist 29.594291689293136
rhand -17.87410308872206 -27.104994733856728
rfingers 7.125019999999999
rthumb 8.391816921456263 -56.918295098482936
31
root 0.5767930271354995 17.603295575757034 -14.028096165788263 7.177848641331311 -1.8063472403141736 -1.0498714176622401
lfemur -13.898709355172507 6.026336206756183 -18.833706732930786
ltibia 20.271607882280595
lfoot -10.874901492457054 7.338859531388032
ltoes 5.930736665287589
rfemur -15.591109453263051 -2.4923358095884725 19.406504829419934
rtibia 23.728408115683838
rfoot -14.038900395912965 -4.024831352825488
rtoes 12.180996598642679
lowerback -1.7799991223730318 -0.2649179393361781 -0.12146186160830386
upperback 3.815551942141037 -0.41077290436522473 1.3973750319145803
thorax 4.948431895286861 -0.23899455775373435 1.4881983328453021
lowerneck -12.804199768025503 0.9808822873938849 -1.714842136540358
upperneck 33.25949272421604 1.6300748717789726 0.7669321401561924
head 13.274392540094258 0.592514370127815 0.8427257588104209
lclavicle -1.185958646751923e-17 -8.162223949322299e-16
lhumerus -19.239695501674266 -7.909083846176626 90.53450101845552
lradius 23.73500077087669
lwrist 4.693431056002591
lhand -24.20960580051947 -2.720515662187697
lfingers 7.125019999999999
lthumb 2.274914215836756 27.247094243928565
rclavicle -1.185958646751923e-17 -8.162223949322299e-16
rhumerus -21.392992070911323 -9.891790346191257 -83.30910589961424
rradius 28.137204783002225
rwrist 28.994393370749783
rhand -17.92680277461968 -27.16419407674282
rfingers 7.125019999999999
rthumb 8.341017193310407 -56.97949441893031
32
root 0.5838087289889257 17.597295656466834 -14.086795935534708 7.360808220734166 -1.8713767516290736 -1.0584611871568042
lfemur -14.613509928097844 6.020766288396944 -18.888906232450836
ltibia 20.828707086752257
lfoot -10.862901463632753 7.418799189353884
ltoes 5.904666734853897
rfemur -16.258008893140858 -2.4234664020719032 19.411804765339415
rtibia 24.160607970790807
rfoot -13.966400514117119 -4.0385812859185375
rtoes 12.131896651109134
lowerback -1.144430009749673 -0.2616630004916015 -0.13491272273170557
upperback 4.046570732553391 -0.4067099644872576 1.4493933952658493
thorax 4.828132432966153 -0.2392635497850905 1.5518971270392645
lowerneck -12.7723999351396 1.009945149203446 -1.6708524934172173
upperneck 32.81819290313992 1.6910947392127569 0.6581627658012756
head 13.079193139592249 0.6149642094382959 0.7962855018915944
lclavicle -1.1859578683808845e-17 -8.162223772809958e-16
lhumerus -18.909296568541528 -8.747633092820129 90.78490024189091
lradius 24.467598679263023
lwrist 5.459959552970757
lhand -24.257505579822748 -2.7677853135023422
lfingers 7.125019999999999
lthumb 2.2286943623574484 27.200294512655965
rclavicle -1.1859578683808845e-17 -8.162223772809958e-16
rhumerus -20.830694210652503 -9.022261953735233 -83.5989048924456
rradius 28.687603587377982
rwrist 28.406795116668683
rhand -18.032902191944174 -27.12039453945702
rfingers 7.125019999999999
rthumb 8.238587804090807 -56.9397948755042
33
root 0.5923323598025945 17.590195741304633 -14.160595619473137 7.751557407544826 -1.984265842583521 -1.106619891865741
lfemur -15.704908626613502 6.040445970336894 -18.937305736748087
ltibia 21.565006705194612
lfoot -10.856001484432733 7.544908677757759
ltoes 5.841816976558139
rfemur -17.28170816124249 -2.2664377670123006 19.463204276273228
rtibia 24.710607287416803
rfoot -13.894000639978453 -4.1101509839553
rtoes 12.011696860038196
lowerback -0.49672320590271823 -0.24273536720563638 -0.11077696927319913
upperback 4.3055592170676915 -0.38365529319247305 1.51329138943682
thorax 4.729772816708865 -0.22916482909796523 1.6077960883502511
lowerneck -12.70610027807433 1.0370050079048418 -1.5817032074898398
upperneck 32.240893721912734 1.7481345182367696 0.5052516353799951
head 12.82309384974958 0.6370000547091295 0.7231546771521848
lclavicle -1.1859573585485478e-17 -8.162223852856049e-16
lhumerus -18.486598048169874 -9.490152086245496 90.94139976032045
lradius 25.116696783062338
lwrist 6.120758231545493
lhand -24.37890525316494 -2.924384452415717
lfingers 7.125019999999999
lthumb 2.111424737510162 27.044895463132978
rclavicle -1.1859573585485478e-17 -8.162223852856049e-16
rhumerus -20.241896363199764 -8.13474303028335 -83.84720396922836
rradius 29.331802044473914
rwrist 27.766396984942503
rhand -18.13650161449233 -27.00219593366627
rfingers 7.125019999999999
rthumb 8.138548369193666 -56.8254961434839
